<svg id="visual" viewBox="0 0 350 500" width="350" height="500" xmlns="http://www.w3.org/2000/svg" xmlns:xlink="http://www.w3.org/1999/xlink" version="1.1"><rect x="0" y="0" width="350" height="500" fill="#273036"></rect><g transform="translate(135.96573311204935 254.8534599361861)"><path d="M77.8 -117.4C106.6 -102.6 139.7 -90.8 159.8 -67C179.9 -43.3 186.9 -7.7 185.7 29.3C184.4 66.3 174.9 104.8 147.9 118.5C121 132.3 76.7 121.3 39.8 129.3C2.9 137.2 -26.6 164.1 -48.5 160C-70.4 155.9 -84.7 120.8 -93.4 91.6C-102.1 62.4 -105.2 39 -106 16.8C-106.7 -5.4 -105.2 -26.4 -106.5 -59C-107.7 -91.6 -111.7 -135.8 -94.4 -155.9C-77.1 -176 -38.6 -172 -7 -161.1C24.5 -150.1 49 -132.3 77.8 -117.4" fill="none" stroke="#FCAF3C" stroke-width="2"></path></g></svg>