<svg id="visual" viewBox="0 0 350 500" width="350" height="500" xmlns="http://www.w3.org/2000/svg" xmlns:xlink="http://www.w3.org/1999/xlink" version="1.1"><rect x="0" y="0" width="350" height="500" fill="#273036"></rect><g transform="translate(158.61985448249237 240.13714935006712)"><path d="M95.4 -148.8C112 -137.8 105.8 -91.6 121.8 -55.8C137.9 -20 176.4 5.4 186.2 35.9C196.1 66.4 177.4 102 150.6 127.4C123.7 152.8 88.8 168 54.8 170.8C20.8 173.7 -12.3 164.1 -41.8 151.3C-71.3 138.6 -97.2 122.7 -115.7 100.7C-134.3 78.7 -145.3 50.6 -151.3 20.7C-157.3 -9.2 -158.3 -41 -150.9 -73.9C-143.6 -106.8 -128 -140.9 -101.5 -147.3C-75 -153.7 -37.5 -132.3 1 -133.8C39.4 -135.3 78.8 -159.7 95.4 -148.8" fill="none" stroke="#FCAF3C" stroke-width="6"></path></g></svg>