<svg id="visual" viewBox="0 0 900 900" width="900" height="900" xmlns="http://www.w3.org/2000/svg" xmlns:xlink="http://www.w3.org/1999/xlink" version="1.1"><rect x="0" y="0" width="900" height="900" fill="#273036"></rect><g transform="translate(478.3305018061443 464.4319744712932)"><path d="M135.8 -230.2C169.9 -189.3 187.3 -141.4 199.3 -96.5C211.3 -51.5 218 -9.6 229.4 45.4C240.7 100.3 256.8 168.4 230.5 200.9C204.1 233.4 135.5 230.4 71.4 254.2C7.4 277.9 -51.9 328.5 -100.1 322.7C-148.3 316.8 -185.2 254.7 -218.5 199C-251.7 143.2 -281.3 94 -293.8 39.2C-306.4 -15.5 -301.9 -75.7 -290.6 -146.2C-279.4 -216.7 -261.3 -297.7 -211.8 -331.5C-162.2 -365.4 -81.1 -352.2 -15.1 -328.6C50.8 -305.1 101.6 -271.2 135.8 -230.2" fill="none" stroke="#FCAF3C" stroke-width="6"></path></g></svg>