<?xml version="1.0" encoding="iso-8859-1"?>
<!-- Generator: Adobe Illustrator 18.0.0, SVG Export Plug-In . SVG Version: 6.00 Build 0)  -->
<!DOCTYPE svg PUBLIC "-//W3C//DTD SVG 1.1//EN" "http://www.w3.org/Graphics/SVG/1.1/DTD/svg11.dtd">
<svg version="1.1" id="Capa_1" xmlns="http://www.w3.org/2000/svg" xmlns:xlink="http://www.w3.org/1999/xlink" x="0px" y="0px"
	 viewBox="0 0 297 297" style="enable-background:new 0 0 297 297;" xml:space="preserve">
<g>
	<path d="M41.689,68.59c5.201-9.887,13.913-19.056,25.761-26.86c21.506-14.163,50.29-21.964,81.05-21.964s59.543,7.801,81.05,21.964
		c11.848,7.803,20.561,16.972,25.761,26.86c11.682,3.21,19.781,6.939,24.51,11.318c-3.445-20.889-17.126-40.016-39.4-54.686
		C215.725,8.958,183.08,0,148.5,0S81.275,8.958,56.578,25.222C34.308,39.89,20.633,59.015,17.188,79.901
		C21.917,75.525,30.014,71.799,41.689,68.59z"/>
	<path d="M270.81,90.434c-1.899-2.259-10.862-7.668-36.149-12.298c-23.517-4.307-54.116-6.678-86.16-6.678
		s-62.644,2.371-86.16,6.678c-25.287,4.63-34.251,10.039-36.149,12.298c1.899,2.26,10.862,7.668,36.149,12.298
		c23.517,4.307,54.116,6.678,86.16,6.678s62.644-2.371,86.16-6.678C259.947,98.103,268.911,92.694,270.81,90.434z"/>
	<path d="M90.559,210.701c-1.723-23.123-13.747-91.722-13.747-91.722c-7.557-0.991-14.676-2.14-21.221-3.449
		c-19.388-3.878-32.004-8.628-38.42-14.576l15.453,162.258c0.53,17.843,26.574,24.228,35.192,26.34
		C87.692,294.424,115.593,297,148.5,297s60.807-2.576,80.685-7.449c8.616-2.112,34.657-8.498,35.19-26.339l15.455-162.259
		c-6.417,5.948-19.032,10.698-38.42,14.576c-11.763,2.353-25.354,4.199-40.098,5.499v40.75c0,3.75-2.942,6.918-6.424,6.918
		c-3.482,0-6.424-3.169-6.424-6.918c0-5.458-4.425-9.884-9.884-9.884s-9.884,4.425-9.884,9.884v32.616
		c0,3.75-2.942,6.918-6.424,6.918c-3.482,0-6.424-3.169-6.424-6.918v-32.121c0-5.458-4.425-9.884-9.884-9.884
		c-5.458,0-9.884,4.425-9.884,9.884v32.121c0,3.75-2.942,6.918-6.424,6.918c-3.482,0-6.424-3.169-6.424-6.918
		c0-5.458-4.425-9.884-9.884-9.884c-5.458,0-9.884,4.425-9.884,9.884v16.308c0,3.75-2.942,6.918-6.424,6.918
		S90.838,214.44,90.559,210.701z"/>
</g>
<g>
</g>
<g>
</g>
<g>
</g>
<g>
</g>
<g>
</g>
<g>
</g>
<g>
</g>
<g>
</g>
<g>
</g>
<g>
</g>
<g>
</g>
<g>
</g>
<g>
</g>
<g>
</g>
<g>
</g>
</svg>
