<?xml version="1.0" encoding="iso-8859-1"?>
<!-- Generator: Adobe Illustrator 19.0.0, SVG Export Plug-In . SVG Version: 6.00 Build 0)  -->
<svg version="1.1" id="Layer_1" xmlns="http://www.w3.org/2000/svg" xmlns:xlink="http://www.w3.org/1999/xlink" x="0px" y="0px"
	 viewBox="0 0 473.931 473.931" style="enable-background:new 0 0 473.931 473.931;" xml:space="preserve">
<circle style="fill:#E4E4E4;" cx="236.966" cy="236.966" r="236.966"/>
<path style="fill:#F2BE3E;" d="M274.23,106.655c1.893,0,3.442,1.534,3.442,3.442v31.405c0,1.908-1.549,3.45-3.442,3.45h-31.412
	c-1.901,0-3.442-1.542-3.442-3.45v-31.405c0-1.908,1.542-3.442,3.442-3.442H274.23z"/>
<path style="fill:#F5E554;" d="M274.23,151.242c1.893,0,3.442,1.542,3.442,3.442v31.412c0,1.908-1.549,3.442-3.442,3.442h-31.412
	c-1.901,0-3.442-1.534-3.442-3.442v-31.412c0-1.901,1.542-3.442,3.442-3.442H274.23z"/>
<path style="fill:#6CC077;" d="M274.23,195.889c1.893,0,3.442,1.534,3.442,3.442v31.412c0,1.901-1.549,3.435-3.442,3.435h-31.412
	c-1.901,0-3.442-1.534-3.442-3.435v-31.412c0-1.908,1.542-3.442,3.442-3.442L274.23,195.889L274.23,195.889z"/>
<path style="fill:#67B8CB;" d="M274.23,240.483c1.893,0,3.442,1.542,3.442,3.442v31.405c0,1.908-1.549,3.45-3.442,3.45h-31.412
	c-1.901,0-3.442-1.542-3.442-3.45v-31.405c0-1.901,1.542-3.442,3.442-3.442H274.23z"/>
<path style="fill:#C698C5;" d="M274.23,285.115c1.893,0,3.442,1.542,3.442,3.45v31.405c0,1.908-1.549,3.45-3.442,3.45h-31.412
	c-1.901,0-3.442-1.542-3.442-3.45v-31.405c0-1.908,1.542-3.45,3.442-3.45H274.23z"/>
<path style="fill:#E79E2D;" d="M230.017,106.655c1.908,0,3.45,1.534,3.45,3.442v31.405c0,1.908-1.542,3.45-3.45,3.45h-31.405
	c-1.901,0-3.45-1.542-3.45-3.45v-31.405c0-1.908,1.549-3.442,3.45-3.442H230.017z"/>
<path style="fill:#F06668;" d="M274.23,61.492c1.893,0,3.442,1.542,3.442,3.435v31.412c0,1.901-1.549,3.45-3.442,3.45h-31.412
	c-1.901,0-3.442-1.549-3.442-3.45V64.927c0-1.893,1.542-3.435,3.442-3.435H274.23z"/>
<path style="fill:#E84849;" d="M230.017,61.492c1.908,0,3.45,1.542,3.45,3.435v31.412c0,1.901-1.542,3.45-3.45,3.45h-31.405
	c-1.901,0-3.45-1.549-3.45-3.45V64.927c0-1.893,1.549-3.435,3.45-3.435H230.017z"/>
<path style="fill:#F4E028;" d="M230.017,151.242c1.908,0,3.45,1.542,3.45,3.442v31.412c0,1.908-1.542,3.442-3.45,3.442h-31.405
	c-1.901,0-3.45-1.534-3.45-3.442v-31.412c0-1.901,1.549-3.442,3.45-3.442H230.017z"/>
<path style="fill:#2F8442;" d="M230.017,195.889c1.908,0,3.45,1.534,3.45,3.442v31.412c0,1.901-1.542,3.435-3.45,3.435h-31.405
	c-1.901,0-3.45-1.534-3.45-3.435v-31.412c0-1.908,1.549-3.442,3.45-3.442L230.017,195.889L230.017,195.889z"/>
<path style="fill:#357180;" d="M230.017,240.483c1.908,0,3.45,1.542,3.45,3.442v31.405c0,1.908-1.542,3.45-3.45,3.45h-31.405
	c-1.901,0-3.45-1.542-3.45-3.45v-31.405c0-1.901,1.549-3.442,3.45-3.442H230.017z"/>
<path style="fill:#9F77AA;" d="M230.017,285.115c1.908,0,3.45,1.542,3.45,3.45v31.405c0,1.908-1.542,3.45-3.45,3.45h-31.405
	c-1.901,0-3.45-1.542-3.45-3.45v-31.405c0-1.908,1.549-3.45,3.45-3.45H230.017z"/>
<path style="fill:#626463;" d="M274.23,329.526c1.893,0,3.442,1.542,3.442,3.442v31.412c0,1.901-1.549,3.442-3.442,3.442h-31.412
	c-1.901,0-3.442-1.542-3.442-3.442v-31.412c0-1.901,1.542-3.442,3.442-3.442H274.23z"/>
<path style="fill:#958469;" d="M274.23,374.161c1.893,0,3.442,1.542,3.442,3.442v31.412c0,1.901-1.549,3.442-3.442,3.442h-31.412
	c-1.901,0-3.442-1.542-3.442-3.442v-31.412c0-1.901,1.542-3.442,3.442-3.442H274.23z"/>
<path style="fill:#F7D98B;" d="M319.397,106.655c1.901,0,3.442,1.534,3.442,3.442v31.405c0,1.908-1.542,3.45-3.442,3.45h-31.412
	c-1.901,0-3.442-1.542-3.442-3.45v-31.405c0-1.908,1.542-3.442,3.442-3.442H319.397z"/>
<path style="fill:#F9F29A;" d="M319.397,151.242c1.901,0,3.442,1.542,3.442,3.442v31.412c0,1.908-1.542,3.442-3.442,3.442h-31.412
	c-1.901,0-3.442-1.534-3.442-3.442v-31.412c0-1.901,1.542-3.442,3.442-3.442H319.397z"/>
<path style="fill:#A3D4AA;" d="M319.397,195.889c1.901,0,3.442,1.534,3.442,3.442v31.412c0,1.901-1.542,3.435-3.442,3.435h-31.412
	c-1.901,0-3.442-1.534-3.442-3.435v-31.412c0-1.908,1.542-3.442,3.442-3.442L319.397,195.889L319.397,195.889z"/>
<path style="fill:#A2D4DE;" d="M319.397,240.483c1.901,0,3.442,1.542,3.442,3.442v31.405c0,1.908-1.542,3.45-3.442,3.45h-31.412
	c-1.901,0-3.442-1.542-3.442-3.45v-31.405c0-1.901,1.542-3.442,3.442-3.442H319.397z"/>
<path style="fill:#DFBFDB;" d="M319.397,285.115c1.901,0,3.442,1.542,3.442,3.45v31.405c0,1.908-1.542,3.45-3.442,3.45h-31.412
	c-1.901,0-3.442-1.542-3.442-3.45v-31.405c0-1.908,1.542-3.45,3.442-3.45H319.397z"/>
<path style="fill:#F6A2A3;" d="M319.397,61.492c1.901,0,3.442,1.542,3.442,3.435v31.412c0,1.901-1.542,3.45-3.442,3.45h-31.412
	c-1.901,0-3.442-1.549-3.442-3.45V64.927c0-1.893,1.542-3.435,3.442-3.435H319.397z"/>
<path style="fill:#818282;" d="M319.397,329.526c1.901,0,3.442,1.542,3.442,3.442v31.412c0,1.901-1.542,3.442-3.442,3.442h-31.412
	c-1.901,0-3.442-1.542-3.442-3.442v-31.412c0-1.901,1.542-3.442,3.442-3.442H319.397z"/>
<path style="fill:#AA9C87;" d="M319.397,374.161c1.901,0,3.442,1.542,3.442,3.442v31.412c0,1.901-1.542,3.442-3.442,3.442h-31.412
	c-1.901,0-3.442-1.542-3.442-3.442v-31.412c0-1.901,1.542-3.442,3.442-3.442H319.397z"/>
<path style="fill:#3D4040;" d="M230.017,329.526c1.908,0,3.45,1.542,3.45,3.442v31.412c0,1.901-1.542,3.442-3.45,3.442h-31.405
	c-1.901,0-3.45-1.542-3.45-3.442v-31.412c0-1.901,1.549-3.442,3.45-3.442H230.017z"/>
<path style="fill:#776850;" d="M230.017,374.161c1.908,0,3.45,1.542,3.45,3.442v31.412c0,1.901-1.542,3.442-3.45,3.442h-31.405
	c-1.901,0-3.45-1.542-3.45-3.442v-31.412c0-1.901,1.549-3.442,3.45-3.442H230.017z"/>
<path style="fill:#AC782B;" d="M185.928,106.655c1.908,0,3.45,1.534,3.45,3.442v31.405c0,1.908-1.542,3.45-3.45,3.45h-31.405
	c-1.901,0-3.442-1.542-3.442-3.45v-31.405c0-1.908,1.542-3.442,3.442-3.442H185.928z"/>
<path style="fill:#B03738;" d="M185.928,61.492c1.908,0,3.45,1.542,3.45,3.435v31.412c0,1.901-1.542,3.45-3.45,3.45h-31.405
	c-1.901,0-3.442-1.549-3.442-3.45V64.927c0-1.893,1.542-3.435,3.442-3.435H185.928z"/>
<path style="fill:#DAC425;" d="M185.928,151.242c1.908,0,3.45,1.542,3.45,3.442v31.412c0,1.908-1.542,3.442-3.45,3.442h-31.405
	c-1.901,0-3.442-1.534-3.442-3.442v-31.412c0-1.901,1.542-3.442,3.442-3.442H185.928z"/>
<path style="fill:#256533;" d="M185.928,195.889c1.908,0,3.45,1.534,3.45,3.442v31.412c0,1.901-1.542,3.435-3.45,3.435h-31.405
	c-1.901,0-3.442-1.534-3.442-3.435v-31.412c0-1.908,1.542-3.442,3.442-3.442L185.928,195.889L185.928,195.889z"/>
<path style="fill:#1A3940;" d="M185.928,240.483c1.908,0,3.45,1.542,3.45,3.442v31.405c0,1.908-1.542,3.45-3.45,3.45h-31.405
	c-1.901,0-3.442-1.542-3.442-3.45v-31.405c0-1.901,1.542-3.442,3.442-3.442H185.928z"/>
<path style="fill:#56385F;" d="M185.928,285.115c1.908,0,3.45,1.542,3.45,3.45v31.405c0,1.908-1.542,3.45-3.45,3.45h-31.405
	c-1.901,0-3.442-1.542-3.442-3.45v-31.405c0-1.908,1.542-3.45,3.442-3.45H185.928z"/>
<path style="fill:#202121;" d="M185.928,329.526c1.908,0,3.45,1.542,3.45,3.442v31.412c0,1.901-1.542,3.442-3.45,3.442h-31.405
	c-1.901,0-3.442-1.542-3.442-3.442v-31.412c0-1.901,1.542-3.442,3.442-3.442H185.928z"/>
<path style="fill:#3D3428;" d="M185.928,374.161c1.908,0,3.45,1.542,3.45,3.442v31.412c0,1.901-1.542,3.442-3.45,3.442h-31.405
	c-1.901,0-3.442-1.542-3.442-3.442v-31.412c0-1.901,1.542-3.442,3.442-3.442H185.928z"/>
<g>
</g>
<g>
</g>
<g>
</g>
<g>
</g>
<g>
</g>
<g>
</g>
<g>
</g>
<g>
</g>
<g>
</g>
<g>
</g>
<g>
</g>
<g>
</g>
<g>
</g>
<g>
</g>
<g>
</g>
</svg>
