<?xml version="1.0" standalone="yes"?>
<svg width="680" height="124">
<path style="fill:#000000; stroke:none;" d="M0 0L0 43L1 43C3.75984 27.5175 19.5855 16.5711 35 19.3295C38.7153 19.9943 49.7511 24.8597 44 29C45.5044 33.2114 44.6683 35.1758 40 35C36.6057 40.6726 16.4713 31.5612 17.5463 45.9421C17.985 51.8113 27.0961 50.6379 31 51.3287C38.3009 52.6206 45.1377 57.7607 49.0054 64C59.4569 80.8599 43.4394 96.6476 27 98.7099C17.0813 99.9542 8.45393 95.4481 0 91L0 124L355 124L356 34C359.498 35.9281 359.875 38.1224 360 42L361 42L361 30L367 32C371.658 27.7515 376.747 24.116 383 22.6806C387.351 21.6817 392.597 21.5566 397 22.3287C446.392 30.9894 416.67 115.846 372 95L369 122L365 116L364 116L359 124L680 124L680 81L679 81C673.817 98.952 653.508 106.015 638 96.0309C624.506 87.3437 617.94 72.6798 619.09 57C619.79 47.4687 625.48 34.2932 634.004 29.3673C653.652 18.0127 677.225 36.6698 679 57L680 57L680 0L604 0L605 3C618.769 1.7324 613.193 19.6018 604.679 22.6944C601.539 23.835 593.637 18.7536 590 18L602 0L0 0z"/>
<path style="fill:#1badfb; stroke:none;" d="M590 18C593.719 19.0584 601.177 24.2807 604.679 23.2631C613.518 20.6947 619.615 -0.25901 605 3L604 0C597.286 3.13978 591.413 10.6984 590 18M295 2L295 8L291 6L288.985 46L288 95L297 88L302 92C306.612 77.2257 304.818 63.2877 314.49 50C316.463 47.2892 321.278 39.7934 325.428 40.7307C329.2 41.5824 328.962 50.1642 328.996 53C329.159 66.6624 329 80.3365 329 94L339 86L340 91L343 91C349.444 76.5568 349.599 48.6866 342.811 34C334.982 17.0612 317.127 21.8507 306 32C306 23.9967 307.328 15.9644 306.981 8.00463C306.793 3.70606 303.767 0.684563 302 6L295 2M73 3L71 9L70 9L64 4L64 13L63 13L63 9C56.3228 10.9532 59 25.3539 59 31C59 53.6939 60 76.2686 60 99C64.5645 98.2511 66.992 95.0069 69 91L70 91C70.5009 97.4336 74.6259 96.8487 76.2353 90.9954C77.9544 84.7434 77 77.434 77 71C82.3492 76.6053 87.9414 91.0219 95.054 93.8241C100.1 95.8121 107.615 86.7092 106.336 81.9992C103.969 73.2877 91.632 66.4047 90.6273 58C89.6797 50.0725 106.595 44.7459 108.539 37.1088C109.186 34.5643 99.4124 27.269 96.9421 27.662C89.9548 28.7738 81.8074 39.2058 77 44C74.1683 32.1059 80.8104 12.9256 73 3M189 4L189 18L188 18L187 9L179 28L180 38L183 38C182.881 52.4256 177.362 74.1607 186.109 86.9606C192.221 95.906 216.412 102.296 219 87L207 85L210 84L210 82C193.88 73.7343 199.873 58.3669 200 43C203.169 43 209.817 44.235 212.342 41.9722C214.399 40.1283 212.211 37.1802 211.656 35.1698C209.509 27.3951 208.956 26.0069 200 26L199 4C195.679 5.09886 195.263 6.59023 195 10L189 4z"/>
<path style="fill:#000000; stroke:none;" d="M295 10L295 15L296 15L295 10z"/>
<path style="fill:#1badfb; stroke:none;" d="M543 11L544 20L543 20L543 14C536.712 16.087 539.05 27.3463 538 33C533.744 30.6159 529.782 30.06 525 29.4244C483.377 23.8924 473.05 94.0109 516 95.9606C521.085 96.1915 526.154 95.913 531 94.2392C537.996 91.8228 542.909 86.0903 548 81C553.438 89.1675 554.206 71.8124 554.576 69C556.452 54.7099 555 39.4088 555 25C555 20.0116 556.672 12.8826 551 11L551 15L543 11z"/>
<path style="fill:#000000; stroke:none;" d="M64 13L64 16L65 16L64 13z"/>
<path style="fill:#1badfb; stroke:none;" d="M5 76L6 80C1.16896 80.3767 -0.924449 83.2669 4 86L4 87L0 87C1.10534 93.995 8.65986 96.6785 15 97.9043C27.5307 100.327 44.2477 97.9458 50.4275 85C56.6923 71.8761 47.9452 56.4525 35 52.1049C30.789 50.6907 18.6967 52.2921 18.037 45.9421C16.5606 31.7295 37.8936 41.2627 40 35C45.0787 35.9671 46.2128 33.3082 44 29C50.7443 27.5548 43.1187 21.7667 40 20.4167C34.2258 17.9172 24.8055 18.064 19 20.3889C3.20855 26.7128 -9.14116 52.2945 9 63.6111C14.4684 67.0223 31.6428 68.4943 34.25 74.0833C37.1729 80.3492 25.8303 82.4345 22 81.5833C16.0525 80.2617 11.1213 76.3344 5 76M174 81L162 84L164 78C153.064 78.5009 142.044 89.5169 133 79C147.238 79 158.611 75.2253 167.363 63C175.98 50.9622 175.536 29.9346 160 23.6134C148.927 19.1082 142.518 25.0919 134 31.0995C114.89 44.5765 103.124 71.5724 120.518 91.9066C132.846 106.319 172.27 103.945 174 81M367 32L361 30L361 42L360 42C359.953 38.0654 360.046 35.3429 356 34L355 124C359.565 123.251 361.992 120.007 364 116L365 116L369 122L372 95C378.728 99.1217 387.566 98.7759 395 96.5602C420.062 89.0908 432.265 53.5953 415.331 33.0394C403.909 19.1739 378.56 17.031 367 32M432 47L436 44L437 44C437.783 48.6773 440.697 49.149 443 45L444 45L444 48C451.828 46.1389 459.539 33.7248 463.696 46.9753C464.211 48.6177 464.564 50.3349 465 52C454.745 52 444.357 52.4942 436.004 59.3403C421.978 70.8353 425.794 90.1847 442 97.1196C449.829 100.47 461.612 100.049 468.981 95.6335C475.311 91.84 472.489 83.8813 481 87C484.437 79.8585 483.191 70.6754 482.285 63C480.663 49.2504 482.044 29.265 465.999 23.1443C452.678 18.0626 428.998 31.4163 432 47z"/>
<path style="fill:#000000; stroke:none;" d="M37 25L37 26L41 28L41 27L37 25z"/>
<path style="fill:#1badfb; stroke:none;" d="M273 86C268.987 85.3125 266.812 86.06 264 89L263 89L259 87L259 86L263 82C253.824 79.2877 246.033 82.4343 239.702 72.9992C231.75 61.1471 240.776 40.5448 256 42L251 54L261 54C265.243 64.5187 282.119 41.7119 283 36L275 31L274 27C262.529 29.7651 251.957 21.6449 240 27.3279C214.278 39.5541 212.068 81.8899 238 95.1644C248.121 100.345 270.093 99.7787 273 86M642 26.4398C602.217 32.8426 617.015 106.737 658 100.699C674.769 98.2287 680 83.8002 680 69C680 46.9277 668.227 22.2188 642 26.4398z"/>
<path style="fill:#000000; stroke:none;" d="M42 28L43 29L42 28z"/>
<path style="fill:#1badfb; stroke:none;" d="M600 34L599 34L599 31L595 31L595 95L605 90C610.712 98.5792 611.214 78.7529 611.576 76C613.652 60.1867 611.326 43.8068 611 28L607 31C603.018 27.2852 600.404 28.8083 600 34z"/>
<path style="fill:#000000; stroke:none;" d="M256 30L256 31L263 33L263 32L256 30M145.667 32.3333L146.333 32.6667L145.667 32.3333M142.667 33.3333L143.333 33.6667L142.667 33.3333M140 34L141 35L140 34M529.667 35.3333L530.333 35.6667L529.667 35.3333M532 36L533 37L532 36M377 37L375 40L377 37M534 37L535 38L534 37M633 37L630 42L631 42L633 37M389 38.6119C368.946 41.3752 363.166 82.687 386 80.4421C397.718 79.2901 406.203 67.2725 406.54 56C406.82 46.6419 398.981 37.2366 389 38.6119M447 39L444 45L445 45L447 39M537 39L538 40L537 39M373 42L374 43L373 42M130 61C143.177 62.0399 155.626 58.9221 156 43C144.034 43.5217 134.638 49.9355 130 61M645.015 43.7569C627.537 50.1374 636.813 89.5109 654.957 83.3565C670.436 78.1058 663.482 37.0149 645.015 43.7569M538 74L538 48C532.448 53.754 523.353 43.5676 515.001 47.5725C502.957 53.3477 499.834 74.0555 515 78.1366C523.648 80.4637 529.727 72.8778 538 74M0 51L0 81L6 80L5 76C9.2878 76.7643 12.9173 78.8628 17 80.3009C21.0393 81.7237 41.4882 81.4493 33.392 72.7029C29.7469 68.7651 20.8575 68.7581 16 66.662C7.75737 63.1052 4.7652 58.0511 0 51M460 86L460 87L467 86L465 70C461.165 69.7765 439.562 69.8928 445.662 78.7222C448.427 82.7246 462.208 80.5092 460 86M130 72L131 73L130 72M132.667 73.3333L133.333 73.6667L132.667 73.3333z"/>
<path style="fill:#1badfb; stroke:none;" d="M566 92L569 90C576.833 100.51 588.91 90.2189 582.856 80.1088C575.807 68.3353 563.099 82.0937 566 92z"/>
<path style="fill:#000000; stroke:none;" d="M535 79L534 81L535 79M372 83L372 86L374 86L374 83L372 83M0 84L4 87L4 86L0 84M4 87L5 88L4 87M456 87L456 88L459 88L456 87M467 87L468 88L467 87M6 88L7 89L6 88M8.66667 89.3333L9.33333 89.6667L8.66667 89.3333M377 89L378 90L377 89M467 89L465 91L465 92L467 89z"/>
</svg>
