<?xml version="1.0" encoding="iso-8859-1"?>
<!-- Generator: Adobe Illustrator 19.0.0, SVG Export Plug-In . SVG Version: 6.00 Build 0)  -->
<svg version="1.1" id="Layer_1" xmlns="http://www.w3.org/2000/svg" xmlns:xlink="http://www.w3.org/1999/xlink" x="0px" y="0px"
	 viewBox="0 0 473.931 473.931" style="enable-background:new 0 0 473.931 473.931;" xml:space="preserve">
<circle style="fill:#22C48A;" cx="236.966" cy="236.966" r="236.966"/>
<path style="fill:#EDC92C;" d="M306.817,306.547l56.186-189.573c-0.299-3.259-3.502-6.455-6.455-6.455l-189.565,56.194
	c-1.848,0-8.655,6.118-9.616,7.551c-1.426,0.958-53.313,118.393-53.313,118.393c0,2.952,73.219,76.164,76.164,76.164
	c0,0,118.101-51.221,119.055-52.654C300.71,315.21,306.817,308.396,306.817,306.547z"/>
<path style="fill:#F1D250;" d="M360.885,112.642c-0.965-0.958-2.705-1.964-4.333-2.118l-189.569,56.19
	c-1.848,0-8.655,6.118-9.616,7.551c-1.426,0.958-53.313,118.393-53.313,118.393c0,1.433,19.023,21.193,37.189,39.389
	L360.885,112.642z"/>
<path style="fill:#9B7842;" d="M171.399,375.418l-36.767-36.767L69.08,404.207c13.83,13.886,29.388,26.046,46.297,36.175
	l56.014-56.01C173.868,381.895,173.868,377.892,171.399,375.418z"/>
<g>
	<path style="fill:#AE8A50;" d="M134.632,338.652l-36.849-36.838L134.632,338.652z"/>
	<path style="fill:#AE8A50;" d="M134.632,338.652L97.783,301.81c-2.47-2.477-6.473-2.477-8.947,0l-55.82,55.82
		c10.08,17.006,22.196,32.654,36.063,46.574L134.632,338.652z"/>
</g>
<g>
	<path style="fill:#DBBD40;" d="M210.16,275.626c-1.003,0.995-6.556-2.967-7.873-4.288l0,0c-1.325-1.31-5.283-6.877-4.296-7.865
		l160.757-153.367c1.003-0.988,2.874-0.722,4.187,0.584l0,0c1.317,1.325,1.579,3.195,0.584,4.187L210.16,275.626z"/>
	<path style="fill:#DBBD40;" d="M213.509,283.169c-7.674,7.689-19.016,8.801-25.317,2.499c-6.301-6.309-5.19-17.642,2.485-25.324
		c7.689-7.674,19.016-8.786,25.317-2.485C222.298,264.153,221.19,275.495,213.509,283.169z"/>
</g>
<g>
	<path style="fill:#F0D359;" d="M211.177,280.845c-6.11,6.125-15.135,7.001-20.157,1.979c-5.014-5.006-4.123-14.032,1.987-20.149
		c6.118-6.118,15.143-6.993,20.157-1.979C218.178,265.71,217.295,274.735,211.177,280.845z"/>
	<path style="fill:#F0D359;" d="M363.953,112.406c0,0-0.262-0.958-1.014-1.717c-0.752-0.752-1.717-1.01-1.717-1.01L201.135,266.23
		c-1.003,0.995,0.584,4.172,1.336,4.924c0.752,0.76,3.94,2.339,4.932,1.343L363.953,112.406z"/>
</g>
<path style="fill:#F8DE71;" d="M362.936,110.689c-0.752-0.752-1.717-1.01-1.717-1.01L209.303,258.238
	c-5.029-1.893-11.54-0.314-16.295,4.438c-6.11,6.118-7.001,15.143-1.987,20.149L362.936,110.689z"/>
<path style="fill:#3D969F;" d="M180.525,382.992c-2.705,2.713-7.091,2.713-9.792,0.007L90.21,302.476
	c-2.713-2.713-2.713-7.094,0-9.8l5.437-5.444c2.705-2.698,7.091-2.698,9.792,0l80.523,80.526c2.713,2.705,2.713,7.091,0,9.792
	L180.525,382.992z"/>
<path style="fill:#4AA0A5;" d="M130.509,342.775L90.21,302.476c-2.713-2.713-2.713-7.094,0-9.8l5.437-5.444
	c2.705-2.698,7.091-2.698,9.792,0l40.303,40.302L130.509,342.775z"/>
<g>
</g>
<g>
</g>
<g>
</g>
<g>
</g>
<g>
</g>
<g>
</g>
<g>
</g>
<g>
</g>
<g>
</g>
<g>
</g>
<g>
</g>
<g>
</g>
<g>
</g>
<g>
</g>
<g>
</g>
</svg>
