<?xml version="1.0" encoding="iso-8859-1"?>
<!-- Generator: Adobe Illustrator 19.0.0, SVG Export Plug-In . SVG Version: 6.00 Build 0)  -->
<svg version="1.1" id="Layer_1" xmlns="http://www.w3.org/2000/svg" xmlns:xlink="http://www.w3.org/1999/xlink" x="0px" y="0px"
	 viewBox="0 0 475.334 475.334" style="enable-background:new 0 0 475.334 475.334;" xml:space="preserve">
<path style="fill:#22C48A;" d="M0,237.661C0,106.407,106.409,0.002,237.671,0.002c131.254,0,237.663,106.409,237.663,237.66
	c0,131.269-106.409,237.671-237.663,237.671C106.405,475.332,0,368.931,0,237.661z"/>
<polygon style="fill:#F7D98B;" points="166.618,103.732 123.494,254.23 123.165,263.835 216.38,261.538 215.942,254.253 "/>
<polygon style="fill:#626463;" points="166.364,102.886 147.595,168.618 188.036,168.618 "/>
<g>
	<path style="fill:#E84849;" d="M209.742,246.316l-13.575,15.229l-0.082,210.086c6.645,1.171,13.381,2.084,20.206,2.698
		l0.09-212.792L209.742,246.316z"/>
	<path style="fill:#E84849;" d="M164.919,463.946l0.094-202.416l-13.934-15.214l-12.834,15.222l-0.075,191.965
		C146.824,457.492,155.744,461.001,164.919,463.946z"/>
</g>
<g>
	<path style="fill:#F06668;" d="M138.248,261.538l-11.278-15.229l-3.929,15.222l-0.082,184.305
		c4.962,2.731,10.047,5.276,15.214,7.667L138.248,261.538z"/>
	<path style="fill:#F06668;" d="M196.081,471.635l0.082-210.086l-15.592-15.229l-15.558,15.214l-0.094,202.416
		C175.026,467.198,185.432,469.757,196.081,471.635z"/>
</g>
<path style="fill:#276D69;" d="M330.044,210.384c-4.108,42.151-18.181,32.243-32.98,32.243c-14.514,0-27.989,9.429-32.976-32.236
	c-4.962-41.485,32.976-112.429,32.976-112.429S334.093,168.854,330.044,210.384z"/>
<path style="fill:#355957;" d="M297.061,242.627c-14.514,0-27.989,9.429-32.976-32.235c-4.962-41.485,32.976-112.429,32.976-112.429
	V242.627L297.061,242.627z"/>
<path style="fill:#E79E2D;" d="M276.672,243.095l-18.686,211.366l-1.085,14.93c0.606-5.699,1.085-11.02,1.085-13.702l18.686-212.421
	c0-3.442,10.874-4.947,21.762-4.846c0,0,0,181.439-0.007,229.039c13.983-3.682,27.453-8.625,40.303-14.668l-18.537-209.701
	C320.192,237.078,276.672,236.243,276.672,243.095z"/>
<g>
	<path style="fill:#D68A28;" d="M256.9,469.39c-0.183,1.703-0.378,3.435-0.569,5.145c0.067-0.007,0.131-0.007,0.198-0.015
		L256.9,469.39z"/>
	<path style="fill:#D68A28;" d="M298.43,467.46c0.007-47.599,0.007-229.039,0.007-229.039c-10.889-0.101-21.762,1.403-21.762,4.846
		l-18.687,212.421c0,2.683-0.479,8.004-1.085,13.702l-0.374,5.13C270.887,473.387,284.9,471.037,298.43,467.46z"/>
</g>
<path style="fill:#CDCCCB;" d="M277.85,243.072l-15.895,170.442l74.274,0.393l-14.866-170.835
	C321.363,237.362,277.85,236.58,277.85,243.072z"/>
<path style="fill:#B1B1B2;" d="M276.672,242.997l-14.72,170.513l36.512-0.079c0,0,1.47-175.003-0.03-175.003
	C287.56,238.429,276.672,239.746,276.672,242.997z"/>
<path style="fill:#BFBEBE;" d="M273.996,278.619l-11.035,123.846l72.46,1.01l-11.042-124.254
	C324.379,274.885,274.004,273.676,273.996,278.619z"/>
<path style="fill:#AAAAAA;" d="M276.672,242.997l-13.916,160.268l35.809-0.453c0,0,0.98-164.384-0.131-164.384
	C287.56,238.429,276.672,239.746,276.672,242.997z"/>
<g>
</g>
<g>
</g>
<g>
</g>
<g>
</g>
<g>
</g>
<g>
</g>
<g>
</g>
<g>
</g>
<g>
</g>
<g>
</g>
<g>
</g>
<g>
</g>
<g>
</g>
<g>
</g>
<g>
</g>
</svg>
