<?xml version="1.0" encoding="iso-8859-1"?>
<!-- Generator: Adobe Illustrator 19.0.0, SVG Export Plug-In . SVG Version: 6.00 Build 0)  -->
<svg version="1.1" id="Layer_1" xmlns="http://www.w3.org/2000/svg" xmlns:xlink="http://www.w3.org/1999/xlink" x="0px" y="0px"
	 viewBox="0 0 473.931 473.931" style="enable-background:new 0 0 473.931 473.931;" xml:space="preserve">
<circle style="fill:#FFC200;" cx="236.966" cy="236.966" r="236.966"/>
<path style="fill:#1FA85B;" d="M322.865,357.099c0,23.539-24.321,47.262-82.319,47.262s-81.069-23.723-81.069-47.262V161.547
	h163.388V357.099z"/>
<path style="fill:#35B167;" d="M240.547,404.361c-57.997,0-81.069-23.723-81.069-47.262V161.547h82.94L240.547,404.361z"/>
<path style="fill:#129949;" d="M322.865,357.099c0,23.539-24.321,47.262-82.319,47.262s-81.069-23.723-81.069-47.262
	c0,0,15.596,34.926,81.698,34.926S322.865,357.099,322.865,357.099z"/>
<path style="fill:#19A855;" d="M240.547,404.361c-57.997,0-81.069-23.723-81.069-47.262c0,0,15.596,34.926,81.698,34.926
	L240.547,404.361z"/>
<path style="fill:#8D8D8C;" d="M155.107,160.709c-3.113-13.149,21.829-10.062,62.259-10.062h47.614
	c38.559,0,67.243-2.361,62.252,10.062c-4.984,12.423-41.234,20.527-84.264,20.527S158.228,173.853,155.107,160.709z"/>
<path style="fill:#9D9E9F;" d="M155.107,160.709c-3.113-13.149,21.829-10.062,62.259-10.062l24.351,0.037l0.468,30.638
	C199.155,181.314,158.228,173.853,155.107,160.709z"/>
<path style="fill:#D0D1D1;" d="M264.524,100.665c0,12.542-10.174,22.712-22.712,22.712l0,0c-12.542,0-22.712-10.174-22.712-22.712
	V68.744c0-12.554,10.174-15.349,22.712-15.349l0,0c12.542,0,22.712,2.791,22.712,15.349V100.665z"/>
<path style="fill:#DDDDDC;" d="M241.811,123.377L241.811,123.377c-12.542,0-22.712-10.174-22.712-22.712V68.744
	c0-12.554,10.174-15.349,22.712-15.349l0,0V123.377z"/>
<path style="fill:#B4B4B5;" d="M164.331,152.806c11.079-17.751,42.776-55.513,55.584-55.513c0,0,12.445,4.801,22.058,4.801
	c9.601,0,20.456-4.801,20.456-4.801c12.804,0,39.128,33.575,55.584,55.513c0,0-37.825,12.973-76.246,12.973
	S164.331,152.806,164.331,152.806z"/>
<path style="fill:#C0C0C0;" d="M164.331,152.806c11.079-17.751,42.776-55.513,55.584-55.513c0,0,12.445,4.801,22.058,4.801
	l-0.206,63.685C203.35,165.779,164.331,152.806,164.331,152.806z"/>
<circle style="fill:#575757;" cx="241.83" cy="71.198" r="9.208"/>
<circle style="fill:#AAAAAA;" cx="241.83" cy="71.198" r="3.375"/>
<g>
</g>
<g>
</g>
<g>
</g>
<g>
</g>
<g>
</g>
<g>
</g>
<g>
</g>
<g>
</g>
<g>
</g>
<g>
</g>
<g>
</g>
<g>
</g>
<g>
</g>
<g>
</g>
<g>
</g>
</svg>
